<?xml version="1.0"?>
<svg xmlns="http://www.w3.org/2000/svg" xmlns:xlink="http://www.w3.org/1999/xlink" version="1.1" id="Capa_1" x="0px" y="0px" width="512px" height="512px" viewBox="0 0 558.131 558.132" style="enable-background:new 0 0 558.131 558.132;" xml:space="preserve"><g><link xmlns="" type="text/css" id="dark-mode" rel="stylesheet" href="" class="active-path" style=""/><style xmlns="" type="text/css" id="dark-mode-custom-style" class="active-path"/><g>
	<g>
		<path d="M283.168,558.091c5.046,0.486,9.152-3.394,9.152-8.464v-74.823c0-5.07-4.1-9.544-9.109-10.318    c-76.347-11.784-134.986-77.938-134.986-157.532c0-87.892,71.506-159.398,159.399-159.398c8.448,0,15.3,6.852,15.3,15.3v33.642    c0,5.07,3.577,7.154,7.986,4.654l168.597-95.521c4.413-2.5,4.413-6.551,0-9.052L330.911,1.058c-4.412-2.5-7.986-0.417-7.986,4.654    v33.635c0,8.449-6.852,15.3-15.3,15.3c-139.123,0-252.31,113.186-252.31,252.309C55.312,437.833,155.475,545.753,283.168,558.091z    " data-original="#000000" class="active-path" fill="#FFFFFF"/>
	</g>
</g></g> </svg>
